<?xml version="1.0" encoding="utf-8"?>
<!-- Generator: Adobe Illustrator 16.0.0, SVG Export Plug-In . SVG Version: 6.00 Build 0)  -->
<!DOCTYPE svg PUBLIC "-//W3C//DTD SVG 1.1//EN" "http://www.w3.org/Graphics/SVG/1.1/DTD/svg11.dtd">
<svg version="1.1" id="Capa_1" xmlns="http://www.w3.org/2000/svg" xmlns:xlink="http://www.w3.org/1999/xlink" x="0px" y="0px"
	 width="35px" height="35px" viewBox="0 0 35 35" enable-background="new 0 0 35 35" xml:space="preserve">
<linearGradient id="SVGID_1_" gradientUnits="userSpaceOnUse" x1="285.9395" y1="-194.7383" x2="285.9395" y2="-235.2637" gradientTransform="matrix(1 0 0 -1 -268.4395 -193.9551)">
	<stop  offset="0" style="stop-color:#23C6AB"/>
	<stop  offset="1.200000e-07" style="stop-color:#23C6AB"/>
	<stop  offset="0.518" style="stop-color:#00A5C3"/>
	<stop  offset="1" style="stop-color:#001B8B"/>
</linearGradient>
<path fill="url(#SVGID_1_)" d="M0.917,25.406V9.593c0-4.771,3.904-8.675,8.676-8.675h15.814c4.771,0,8.676,3.903,8.676,8.675v15.813
	c0,4.771-3.903,8.676-8.676,8.676H9.593C4.821,34.082,0.917,30.178,0.917,25.406z"/>
<path fill="#FFFFFF" d="M12.04,26.058V13.159H7.753v12.899H12.04L12.04,26.058z M9.896,11.399c1.495,0,2.426-0.991,2.426-2.229
	c-0.028-1.266-0.931-2.229-2.396-2.229C8.458,6.941,7.5,7.905,7.5,9.17c0,1.237,0.93,2.229,2.369,2.229H9.896L9.896,11.399z
	 M14.413,26.058h4.286v-7.202c0-0.386,0.028-0.771,0.142-1.045c0.31-0.771,1.016-1.569,2.199-1.569c1.552,0,2.172,1.183,2.172,2.917
	v6.899H27.5v-7.396c0-3.962-2.115-5.805-4.937-5.805c-2.312,0-3.327,1.292-3.892,2.173H18.7v-1.87h-4.287
	C14.47,14.37,14.413,26.058,14.413,26.058L14.413,26.058z"/>
</svg>
